<svg xmlns="http://www.w3.org/2000/svg" viewBox="0 0 48 48" fill="none" role="img" aria-label="Mafaza">
  <!-- Golden emblem only (same geometry as logo.svg — no wordmark) -->
  <path d="M25.1414 25.9486V19.083C25.2161 18.3759 25.4447 17.6932 25.8114 17.0821C26.178 16.4709 26.6741 15.9459 27.2654 15.5431L29.7153 14.1489L35.0476 11.1156L40.2427 8.16061C41.5637 7.4091 42.9877 6.80041 44.0514 5.68505C44.9308 4.76545 45.6074 3.67457 46.0382 2.48178C46.1102 2.30495 46.5906 0.502686 46.5838 0.502686H47.3249V9.68404C47.3249 9.68404 47.3249 13.1117 44.5421 14.7848L25.1414 25.9486Z" fill="#CD992B"/>
  <path d="M28.0652 29.6549L47.3253 18.6101V24.5542C47.3253 24.5542 47.3665 27.7847 44.6729 29.2571L29.9182 37.7073C28.4757 38.6673 27.3654 40.043 26.7373 41.6485C26.5386 42.203 26.4387 42.7875 26.4422 43.376V47.4566H25.1417V35.1875C25.1417 35.1161 25.1417 35.0481 25.1417 34.9801C25.1221 33.9538 25.3632 32.9391 25.8429 32.0294C26.3226 31.1196 27.0255 30.344 27.8868 29.774C27.9451 29.7331 28.0069 29.6957 28.0687 29.6617" fill="#CD992B"/>
  <path d="M22.1836 25.9484V19.0828C22.1088 18.3756 21.8803 17.693 21.5136 17.0818C21.1469 16.4707 20.6508 15.9456 20.0596 15.5429L17.6096 14.1487L12.2739 11.1154L7.07541 8.16037C5.75435 7.40886 4.33034 6.80017 3.26663 5.6848C2.3869 4.76421 1.71028 3.67214 1.27989 2.47813C1.21469 2.30471 0.734306 0.502441 0.741168 0.502441H0V9.68379C0 9.68379 0 13.1115 2.78624 14.7845L22.1836 25.9484Z" fill="#CD992B"/>
  <path d="M19.2601 29.6549L3.62384e-05 18.6067V24.5542C3.62384e-05 24.5542 -0.0411398 27.7846 2.65246 29.2571L17.4072 37.7073C18.8496 38.6673 19.9599 40.043 20.588 41.6485C20.7867 42.203 20.8866 42.7875 20.8831 43.3759V47.4565H22.1836V35.1875C22.1836 35.1161 22.1836 35.0481 22.1836 34.9801C22.2032 33.9538 21.9621 32.9391 21.4824 32.0294C21.0027 31.1196 20.2999 30.344 19.4385 29.7739C19.3802 29.7331 19.3184 29.6957 19.2567 29.6617" fill="#CD992B"/>
</svg>
